<svg width="444" height="399" viewBox="0 0 444 399" fill="none" xmlns="http://www.w3.org/2000/svg">
<path d="M132.14 123.976C149.162 103.501 162.384 88.7929 172.594 78.4769C182.882 68.0828 189.854 62.4163 194.387 59.7394C195.362 59.1638 196.145 58.7789 196.754 58.519C196.762 59.2366 196.713 60.115 196.588 61.1496C196.338 63.2293 195.049 65.8841 191.635 69.7185C188.245 73.5254 183.421 77.7891 177.135 83.2133C164.709 93.9359 147.592 108.337 128.942 130.086C111.955 149.897 95.757 172.846 82.7725 191.172C96.3749 170.15 114.92 144.688 132.14 123.976Z" fill="#C7C7C7" stroke="black" stroke-width="12"/>
<path d="M232.904 8.5918C280.132 1.39173 314.586 9.65122 339.658 27.5938C364.838 45.6131 381.399 73.9996 391.559 108.646C411.938 178.144 405.886 270.489 394.566 346.115C391.626 365.757 388.282 378.253 384.745 385.474C382.984 389.068 381.411 390.856 380.275 391.678C379.355 392.343 378.642 392.46 377.747 392.293C376.587 392.077 374.836 391.293 372.426 389.367C370.06 387.477 367.409 384.769 364.458 381.255C358.544 374.211 351.972 364.595 344.597 353.443C330.012 331.391 312.539 303.699 292.285 281.634C272.12 259.666 248.072 242.004 220 242.004C192.487 242.004 164.663 257.129 139.054 276.197C113.336 295.346 88.6589 319.423 67.7451 338.505C57.1921 348.134 47.6445 356.453 39.2422 362.486C30.6282 368.671 24.1181 371.771 19.5254 372.171C17.4505 372.351 15.986 371.96 14.8086 371.205C13.5656 370.408 12.1108 368.862 10.7266 365.846C7.86368 359.607 6.00003 348.638 6 331.005C6 261.437 38.4397 184.361 83.5322 122.626C106.034 91.8189 131.541 65.0399 157.437 45.0781C183.396 25.0673 209.395 12.1759 232.904 8.5918Z" stroke="black" stroke-width="12"/>
<path d="M414.776 394V384.56H411.064V382.8H420.568V384.56H416.856V394H414.776ZM422.229 394V382.8H423.941L428.837 390.976H427.941L432.757 382.8H434.469L434.485 394H432.517L432.501 385.888H432.917L428.821 392.72H427.893L423.733 385.888H424.213V394H422.229Z" fill="#061022"/>
</svg>
